<svg width="800" height="400" xmlns="http://www.w3.org/2000/svg">
  <rect width="800" height="400" fill="#ffffff"/>
  <!-- Globe/network rings -->
  <g transform="translate(400, 180)">
    <circle cx="0" cy="0" r="80" fill="none" stroke="#d9d3cb" stroke-width="1"/>
    <circle cx="0" cy="0" r="55" fill="none" stroke="#d9d3cb" stroke-width="1"/>
    <circle cx="0" cy="0" r="30" fill="none" stroke="#d9d3cb" stroke-width="1"/>
    <line x1="-80" y1="0" x2="80" y2="0" stroke="#d9d3cb" stroke-width="0.8"/>
    <line x1="-75" y1="-30" x2="75" y2="-30" stroke="#d9d3cb" stroke-width="0.8"/>
    <line x1="-75" y1="30" x2="75" y2="30" stroke="#d9d3cb" stroke-width="0.8"/>
    <!-- Shield -->
    <path d="M0,-50 L35,-30 L35,15 Q35,45 0,55 Q-35,45 -35,15 L-35,-30 Z" fill="none" stroke="#3d7a8a" stroke-width="2"/>
    <path d="M0,-35 L20,-22 L20,8 Q20,28 0,35 Q-20,28 -20,8 L-20,-22 Z" fill="#3d7a8a" fill-opacity="0.08"/>
    <text x="0" y="5" text-anchor="middle" font-family="monospace" font-size="16" font-weight="bold" fill="#3d7a8a">CF</text>
  </g>
  <!-- Edge nodes -->
  <circle cx="200" cy="120" r="5" fill="#b55a3c" opacity="0.5"/>
  <line x1="205" y1="122" x2="345" y2="160" stroke="#b55a3c" stroke-width="1" opacity="0.25" stroke-dasharray="4,3"/>
  <circle cx="600" cy="100" r="5" fill="#b55a3c" opacity="0.5"/>
  <line x1="595" y1="102" x2="455" y2="155" stroke="#b55a3c" stroke-width="1" opacity="0.25" stroke-dasharray="4,3"/>
  <circle cx="580" cy="280" r="5" fill="#b55a3c" opacity="0.5"/>
  <line x1="575" y1="278" x2="455" y2="210" stroke="#b55a3c" stroke-width="1" opacity="0.25" stroke-dasharray="4,3"/>
  <circle cx="220" cy="260" r="5" fill="#b55a3c" opacity="0.5"/>
  <line x1="225" y1="258" x2="345" y2="205" stroke="#b55a3c" stroke-width="1" opacity="0.25" stroke-dasharray="4,3"/>
  <circle cx="160" cy="190" r="4" fill="#8b7355" opacity="0.4"/>
  <line x1="164" y1="190" x2="320" y2="182" stroke="#8b7355" stroke-width="0.8" opacity="0.2" stroke-dasharray="4,3"/>
  <circle cx="640" cy="190" r="4" fill="#8b7355" opacity="0.4"/>
  <line x1="636" y1="190" x2="480" y2="182" stroke="#8b7355" stroke-width="0.8" opacity="0.2" stroke-dasharray="4,3"/>
</svg>
